<svg width="44" height="44" viewBox="0 0 44 44" fill="none" xmlns="http://www.w3.org/2000/svg">
<path d="M0 21.9984C0 9.849 9.849 0 21.9984 0C34.1477 0 43.9967 9.849 43.9967 21.9984C43.9967 34.1477 34.1477 43.9967 21.9984 43.9967C9.849 43.9967 0 34.1477 0 21.9984Z" fill="white" fill-opacity="0.1"/>
<g clip-path="url(#clip0_2_263)">
<path d="M26.998 13.6655H24.4982C23.3932 13.6655 22.3335 14.1045 21.5521 14.8858C20.7708 15.6672 20.3318 16.7269 20.3318 17.8319V20.3317H17.832V23.6648H20.3318V30.331H23.6649V23.6648H26.1647L26.998 20.3317H23.6649V17.8319C23.6649 17.6109 23.7527 17.3989 23.909 17.2427C24.0652 17.0864 24.2772 16.9986 24.4982 16.9986H26.998V13.6655Z" stroke="white" stroke-width="1.66654" stroke-linecap="round" stroke-linejoin="round"/>
</g>
<defs>
<clipPath id="clip0_2_263">
<rect width="19.9985" height="19.9985" fill="white" transform="translate(11.9991 11.999)"/>
</clipPath>
</defs>
</svg>
