<svg width="44" height="44" viewBox="0 0 44 44" fill="none" xmlns="http://www.w3.org/2000/svg">
<path d="M0 21.9984C0 9.849 9.849 0 21.9984 0C34.1477 0 43.9967 9.849 43.9967 21.9984C43.9967 34.1477 34.1477 43.9967 21.9984 43.9967C9.849 43.9967 0 34.1477 0 21.9984Z" fill="white" fill-opacity="0.1"/>
<g clip-path="url(#clip0_2_258)">
<path d="M26.1647 13.6655H17.832C15.531 13.6655 13.6657 15.5309 13.6657 17.8319V26.1646C13.6657 28.4656 15.531 30.331 17.832 30.331H26.1647C28.4657 30.331 30.3311 28.4656 30.3311 26.1646V17.8319C30.3311 15.5309 28.4657 13.6655 26.1647 13.6655Z" stroke="white" stroke-width="1.66654" stroke-linecap="round" stroke-linejoin="round"/>
<path d="M25.3314 21.4731C25.4343 22.1666 25.3158 22.8748 24.9929 23.4971C24.67 24.1194 24.1591 24.624 23.5329 24.9392C22.9067 25.2544 22.197 25.3641 21.5049 25.2527C20.8127 25.1414 20.1733 24.8146 19.6776 24.3188C19.1818 23.8231 18.855 23.1837 18.7437 22.4915C18.6323 21.7994 18.742 21.0897 19.0572 20.4635C19.3724 19.8373 19.877 19.3264 20.4993 19.0035C21.1216 18.6806 21.8298 18.5621 22.5233 18.665C23.2307 18.7699 23.8856 19.0995 24.3913 19.6051C24.8969 20.1108 25.2265 20.7657 25.3314 21.4731Z" stroke="white" stroke-width="1.66654" stroke-linecap="round" stroke-linejoin="round"/>
<path d="M26.5814 17.4155H26.5897" stroke="white" stroke-width="1.66654" stroke-linecap="round" stroke-linejoin="round"/>
</g>
<defs>
<clipPath id="clip0_2_258">
<rect width="19.9985" height="19.9985" fill="white" transform="translate(11.9991 11.999)"/>
</clipPath>
</defs>
</svg>
