<svg width="12" height="12" viewBox="0 0 12 12" fill="none" xmlns="http://www.w3.org/2000/svg">
<g clip-path="url(#clip0_12_500)">
<path d="M9.99296 4.99645C9.99296 7.49119 7.22541 10.0894 6.29606 10.8918C6.20949 10.9569 6.1041 10.9921 5.99577 10.9921C5.88745 10.9921 5.78206 10.9569 5.69549 10.8918C4.76614 10.0894 1.99859 7.49119 1.99859 4.99645C1.99859 3.93633 2.41972 2.91963 3.16934 2.17002C3.91896 1.4204 4.93566 0.999268 5.99577 0.999268C7.05589 0.999268 8.07259 1.4204 8.82221 2.17002C9.57183 2.91963 9.99296 3.93633 9.99296 4.99645Z" stroke="#0A0A0A" stroke-opacity="0.6" stroke-width="0.999295" stroke-linecap="round" stroke-linejoin="round"/>
<path d="M5.99577 6.49545C6.82362 6.49545 7.49472 5.82435 7.49472 4.9965C7.49472 4.16866 6.82362 3.49756 5.99577 3.49756C5.16793 3.49756 4.49683 4.16866 4.49683 4.9965C4.49683 5.82435 5.16793 6.49545 5.99577 6.49545Z" stroke="#0A0A0A" stroke-opacity="0.6" stroke-width="0.999295" stroke-linecap="round" stroke-linejoin="round"/>
</g>
<defs>
<clipPath id="clip0_12_500">
<rect width="11.9915" height="11.9915" fill="white"/>
</clipPath>
</defs>
</svg>
