<svg width="36" height="36" viewBox="0 0 36 36" fill="none" xmlns="http://www.w3.org/2000/svg">
<path d="M0 17.9987C0 8.05827 8.05827 0 17.9987 0C27.939 0 35.9973 8.05827 35.9973 17.9987C35.9973 27.939 27.939 35.9973 17.9987 35.9973C8.05827 35.9973 0 27.939 0 17.9987Z" fill="white" fill-opacity="0.1"/>
<g clip-path="url(#clip0_2_249)">
<path d="M24.6609 21.2785V23.2784C24.6616 23.464 24.6236 23.6478 24.5492 23.8179C24.4748 23.988 24.3658 24.1407 24.229 24.2662C24.0922 24.3917 23.9306 24.4873 23.7548 24.5467C23.5789 24.6062 23.3925 24.6283 23.2076 24.6116C21.1564 24.3887 19.1859 23.6878 17.4547 22.5651C15.8441 21.5416 14.4785 20.176 13.455 18.5654C12.3284 16.8263 11.6273 14.8463 11.4085 12.7858C11.3919 12.6015 11.4138 12.4157 11.4729 12.2403C11.5319 12.0649 11.6269 11.9037 11.7517 11.767C11.8765 11.6303 12.0283 11.521 12.1977 11.4463C12.367 11.3715 12.55 11.3328 12.7351 11.3326H14.7349C15.0585 11.3294 15.3721 11.444 15.6174 11.6549C15.8627 11.8659 16.0229 12.1588 16.0682 12.4792C16.1526 13.1192 16.3091 13.7476 16.5348 14.3524C16.6245 14.591 16.6439 14.8503 16.5907 15.0996C16.5376 15.3488 16.4141 15.5777 16.2348 15.7589L15.3882 16.6055C16.3372 18.2744 17.719 19.6563 19.3879 20.6052L20.2345 19.7586C20.4158 19.5794 20.6446 19.4559 20.8939 19.4027C21.1432 19.3495 21.4025 19.369 21.6411 19.4586C22.2459 19.6843 22.8743 19.8409 23.5143 19.9253C23.8381 19.971 24.1338 20.1341 24.3452 20.3836C24.5567 20.6331 24.669 20.9516 24.6609 21.2785Z" stroke="white" stroke-opacity="0.8" stroke-width="1.33323" stroke-linecap="round" stroke-linejoin="round"/>
</g>
<defs>
<clipPath id="clip0_2_249">
<rect width="15.9988" height="15.9988" fill="white" transform="translate(9.99529 9.99951)"/>
</clipPath>
</defs>
</svg>
