<svg width="48" height="48" viewBox="0 0 48 48" fill="none" xmlns="http://www.w3.org/2000/svg">
<path d="M0 24C0 10.7452 10.7452 0 24 0V0C37.2548 0 48 10.7452 48 24V24C48 37.2548 37.2548 48 24 48V48C10.7452 48 0 37.2548 0 24V24Z" fill="white" fill-opacity="0.1"/>
<g clip-path="url(#clip0_71_266)">
<path d="M33.1667 19.8333C33.1667 19.8333 32.75 16.9167 30.6667 16.9167C29 16.9167 22.75 26.0833 21.9167 27.3333C21.0833 28.5833 20.6667 29 19.4167 29C18.1667 29 17.3333 27.75 18.1667 25.6667C19 23.5833 21.5 18.1667 21.5 18.1667C21.5 18.1667 21.9167 16.9167 20.6667 16.9167C19.4167 16.9167 17.75 19.8333 17.75 19.8333L16.5 18.1667C16.5 18.1667 18.5833 14 21.9167 14C25.25 14 25.25 16.5 24.4167 19C23.5833 21.5 21.0833 26.0833 21.0833 26.0833C21.0833 26.0833 20.6667 27.3333 21.5 27.3333C22.3333 27.3333 23.1667 26.0833 25.25 22.75C27.3333 19.4167 30.25 15.6667 33.1667 15.6667C36.0833 15.6667 35.25 17.3333 33.5833 20.25" stroke="white" stroke-width="1.66667" stroke-linecap="round" stroke-linejoin="round"/>
</g>
<defs>
<clipPath id="clip0_71_266">
<rect width="20" height="20" fill="white" transform="translate(14 14)"/>
</clipPath>
</defs>
</svg>
